<svg xmlns="http://www.w3.org/2000/svg" width="125" height="290" viewBox="0 551.695 125 290"><path fill="none" stroke="#000" stroke-width="2" d="M23.62 573.541L7.5 556.22"/><g stroke="#000"><g fill="#FFF"><path d="M117.26 683.679v23.871h-11.38v-7h7.5v-7.951h-7.5v-8.92z"/><path d="M113.38 692.599v7.951h-7.5v-2.97l4.542-.028-.042-1.937h-4.5v-3.016zM105.88 697.58v2.97H94.63v-7.91l10.245-.031v3.006h-8.059v1.937z"/></g><g stroke-width="2"><path fill="#fff" d="M5.26 555.47h115.78v281.92H5.26z"/><path fill="#FFF" d="M104 700.55v119.67H20.88l.46-246.679 82.66-.711v119.779"/><path fill="#FFF" d="M105.88 692.599v-8.92h11.38v23.871h-11.38v-7H94.63v-7.91l9.37-.031z"/><path fill="none" d="M105.88 692.599h7.5v7.951h-7.5"/></g></g><path fill="none" stroke="#000" stroke-width="2" d="M121.04 837.39L104 820.22M20.88 820.22L5.26 837.39M21.38 573.541L5.26 555.47M103.879 572.837l17.161-17.207"/><path fill="none" d="M124.875 551.89v290"/></svg>