<svg version="1.1" id="prefix__Layer_1" xmlns="http://www.w3.org/2000/svg" xmlns:xlink="http://www.w3.org/1999/xlink" x="0" y="0" viewBox="0 0 125 290" xml:space="preserve"><style>.prefix__st0{display:none}.prefix__st1{display:inline}.prefix__st2{fill:#fff}.prefix__st3,.prefix__st4{fill:none;stroke:#000;stroke-linejoin:round}.prefix__st3{stroke-width:.5;stroke-linecap:round}.prefix__st4{stroke-width:2}.prefix__st5{stroke-miterlimit:1}.prefix__st5,.prefix__st6,.prefix__st7{fill:none;stroke:#000;stroke-width:2}.prefix__st6{stroke-linejoin:round;stroke-miterlimit:1}.prefix__st7{display:inline}.prefix__st10,.prefix__st8,.prefix__st9{fill:#fff;stroke:#000}.prefix__st10,.prefix__st9{stroke-width:2}.prefix__st10{fill:none}.prefix__st11{display:inline;fill:#fff;stroke:#000}.prefix__st12,.prefix__st13,.prefix__st14{display:inline;fill:none;stroke-miterlimit:1}.prefix__st12{stroke:#000;stroke-width:2}.prefix__st13,.prefix__st14{stroke:#bf1f40}.prefix__st14{fill:#fff;stroke:#000;stroke-width:2}.prefix__st15,.prefix__st16{fill:none;stroke:#231f20;stroke-width:2}.prefix__st16{fill:#fff}</style><image width="370" height="290" xlink:href="56ACC33C.jpeg" transform="matrix(1.0135 0 0 1 .002 551.89)" overflow="visible" id="prefix__Layer_1_1_"/><image width="380" height="290" xlink:href="56ACC33C.jpeg" transform="matrix(.9868 0 0 1 0 551.89)" overflow="visible" id="prefix__Layer_3"/><g id="prefix__fff" class="prefix__st0"><g class="prefix__st1"><g id="prefix__XMLID_1_"><path class="prefix__st2" d="M240.5 826.8h119.3l15.2 15.1H0l14.8-15.1h119.7zM259.5 566.8h100.3v260H259.5zM259.5 566.8v260h-19v-260z"/><path class="prefix__st2" d="M240.5 567.2v259.6h-106v-260h106zM134.5 566.8v260h-19v-260zM115.5 567.2v259.6H14.8v-260h100.7zM14.8 566.8v260L0 841.9v-290z"/><path class="prefix__st2" d="M375 551.9l-15.2 14.9h-345L0 551.9z"/><path class="prefix__st2" d="M375 551.9v290l-15.2-15.1v-260z"/><g><path class="prefix__st3" d="M0 551.9h375v290H0v-290M359.8 566.8l15.2-14.9M14.8 826.8L0 841.9M359.8 826.8l15.2 15.1M14.8 566.8L0 551.9"/><path class="prefix__st3" d="M14.8 566.8h345v260h-345v-260M259.5 566.8v260M240.5 567.2v260M134.5 566.8v260M115.5 567.2v260"/></g><g><path class="prefix__st4" d="M240.5 826.8h119.3l15.2 15.1H0l14.8-15.1h119.7zM259.5 566.8h100.3v260H259.5zM259.5 566.8v260h-19v-260z"/><path class="prefix__st4" d="M240.5 567.2v259.6h-106v-260h106zM134.5 566.8v260h-19v-260zM115.5 567.2v259.6H14.8v-260h100.7zM14.8 566.8v260L0 841.9v-290z"/><path class="prefix__st4" d="M375 551.9l-15.2 14.9h-345L0 551.9z"/><path class="prefix__st4" d="M375 551.9v290l-15.2-15.1v-260z"/><g><path class="prefix__st4" d="M0 551.9h375v290H0v-290M359.8 566.8l15.2-14.9M14.8 826.8L0 841.9M359.8 826.8l15.2 15.1M14.8 566.8L0 551.9"/><path class="prefix__st4" d="M14.8 566.8h345v260h-345v-260M259.5 566.8v260M240.5 567.2v260M134.5 566.8v260M115.5 567.2v260"/></g></g></g></g></g><g id="prefix__sss" class="prefix__st0"><g class="prefix__st1"><g id="prefix__XMLID_3_"><path class="prefix__st2" d="M354.4 820.5l15.6 17.2H254.2l16.9-17.2zM370 555.8v.2l-16 18.4v-.5h-83.6l-16.2-18.1z"/><path class="prefix__st2" d="M370 556v281.7l-15.6-17.2-.4-246.1zM271.3 708.5l-.2 112-16.9 17.2V555.8l16.2 18.1.8 110.8h-13.4v23.8z"/><path class="prefix__st2" d="M271.3 702.1v6.4h-13.5v-23.8h13.4v9.1h-7.7v8.3z"/><path class="prefix__st2" d="M280.8 701.7v.3l-9.5.1h-7.8v-8.3h17.3z"/><path class="prefix__st2" d="M354 574.4l.4 246.1h-83.3l.2-112h.1l-.1-6.4 9.5-.1V693.8h-9.6v-9.1l-.8-110.8H354z"/><g><path class="prefix__st5" d="M257.8 708.5v-23.8h13.4v9.1h9.6V702l-9.5.1.1 6.4h-13.6"/><path class="prefix__st5" d="M370 556v-.2H254.2v281.9H370z"/><path class="prefix__st6" d="M271.2 693.8h-7.7v8.3h7.8v6.4l-.2 112h83.3l-.4-246.1v-.5h-83.6l.8 110.8z"/><path class="prefix__st5" d="M370 837.7l-15.6-17.2M271.1 820.5l-16.9 17.2M270.4 573.9l-16.2-18.1M354 574.4l16-18.4"/></g></g></g><path class="prefix__st7" d="M23.6 573.5L7.5 556.2"/><g class="prefix__st1"><g id="prefix__XMLID_2_"><path class="prefix__st8" d="M117.3 683.7v23.8h-11.4v-7h7.5v-7.9h-7.5v-8.9z"/><path class="prefix__st8" d="M113.4 692.6v7.9h-7.5v-2.9h4.5v-2h-4.5v-3zM105.9 697.6v2.9H94.6v-7.9h10.3v3h-8.1v2z"/><g><path class="prefix__st9" d="M5.3 555.5h115.8v281.9H5.3z"/><path class="prefix__st9" d="M104 700.5v119.7H20.9l.4-246.7 82.7-.7v119.8"/><path class="prefix__st9" d="M105.9 692.6v-8.9h11.4v23.8h-11.4v-7H94.6v-7.9h9.4z"/><path class="prefix__st10" d="M105.9 692.6h7.5v7.9h-7.5"/></g></g><path class="prefix__st10" d="M121 837.4l-17-17.2M20.9 820.2L5.3 837.4M21.4 573.5l-16.1-18M103.9 572.8l17.1-17.2"/></g><path class="prefix__st7" d="M228.6 573.8l17.2-17.2M146.1 574.5L130 557.2"/><path class="prefix__st11" d="M133.8 684.7v23.8h11.4v-7h-7.5v-7.9h7.5v-8.9z"/><path class="prefix__st11" d="M137.7 693.6v7.9h7.5v-2.9h-4.6l.1-2h4.5v-3zM145.2 698.6v2.9h11.2v-7.9h-10.2v3h8v2z"/><g class="prefix__st1"><path class="prefix__st9" d="M129.6 555.5h115.8v281.9H129.6z"/><path class="prefix__st9" d="M146.6 700.5l-.2 119.7h83.4l-.5-246.7h-83.6l.9 119.1"/><path class="prefix__st9" d="M144.8 692.6v-8.9h-11.4v23.8h11.4v-7H156v-7.9h-9.4z"/><path class="prefix__st10" d="M144.8 692.6h-7.5v7.9h7.5M245.4 837.4l-15.6-17.2M146.4 820.2l-16.8 17.2M145.7 573.5l-16.1-18M229.3 574.1l16.1-18.5"/></g><path class="prefix__st12" d="M0 551.5h375v290.4H0z"/><path class="prefix__st13" d="M124.9 551.5v290M250 551.5v290"/><path class="prefix__st14" d="M0 551.5v290.4-290.4z"/></g><g id="prefix__s3" class="prefix__st0"><g class="prefix__st1"><g id="prefix__XMLID_5_"><path class="prefix__st2" d="M370 556v281.7l-15.6-17.2-.4-246.1z"/><path class="prefix__st2" d="M370 555.8v.2l-16 18.4v-.5h-83.6l-16.2-18.1zM354.4 820.5l15.6 17.2H254.2l16.9-17.2z"/><path class="prefix__st2" d="M354 574.4l.4 246.1h-83.3l.2-112h.1l-.1-6.4 9.5-.1V693.8h-9.6v-9.1l-.8-110.8H354z"/><path class="prefix__st2" d="M280.8 701.7v.3l-9.5.1h-7.8v-8.3h17.3z"/><path class="prefix__st2" d="M271.3 702.1v6.4h-13.5v-23.8h13.4v9.1h-7.7v8.3z"/><path class="prefix__st2" d="M271.3 708.5l-.2 112-16.9 17.2V555.8l16.2 18.1.8 110.8h-13.4v23.8z"/><g><path class="prefix__st5" d="M257.8 708.5v-23.8h13.4v9.1h9.6V702l-9.5.1.1 6.4h-13.6"/><path class="prefix__st5" d="M370 556v-.2H254.2v281.9H370z"/><path class="prefix__st6" d="M271.2 693.8h-7.7v8.3h7.8v6.4l-.2 112h83.3l-.4-246.1v-.5h-83.6l.8 110.8z"/><path class="prefix__st5" d="M370 837.7l-15.6-17.2M271.1 820.5l-16.9 17.2M270.4 573.9l-16.2-18.1M354 574.4l16-18.4"/></g></g></g><path class="prefix__st12" d="M250 551.4l125 .1v290.4l-125-.1"/></g><g id="prefix__s2"><path class="prefix__st15" d="M103.7 22.3l17.1-17.2M21.2 23L5.1 5.7"/><path class="prefix__st16" d="M8.8 133.2v23.9h11.4v-7h-7.5v-8h7.5v-8.9z"/><path class="prefix__st16" d="M12.7 142.1v8h7.5v-3h-4.5v-2h4.5v-3zM20.2 147.1v3h11.3v-8H21.2v3h8.1v2z"/><path class="prefix__st16" d="M4.7 4h115.8v281.9H4.7z"/><path fill="#08ffea" stroke="#231f20" stroke-width="2" d="M21.7 149.1l-.2 119.6h83.3L104.4 22H20.8l.9 119.1"/><path class="prefix__st16" d="M19.8 141.1v-8.9H8.5v23.9h11.3v-7h11.3v-8h-9.4z"/><path class="prefix__st15" d="M19.8 141.1h-7.5v8h7.5M120.5 285.9l-15.7-17.2M21.5 268.7L4.7 285.9M20.8 22L4.7 4M104.4 22.6l16.1-18.5"/></g><g id="prefix__s1" class="prefix__st0"><path class="prefix__st7" d="M23.6 573.5L7.5 556.2"/><g class="prefix__st1"><g id="prefix__XMLID_4_"><path class="prefix__st8" d="M117.3 683.7v23.8h-11.4v-7h7.5v-7.9h-7.5v-8.9z"/><path class="prefix__st8" d="M113.4 692.6v7.9h-7.5v-2.9h4.5v-2h-4.5v-3zM105.9 697.6v2.9H94.6v-7.9h10.3v3h-8.1v2z"/><g><path class="prefix__st9" d="M5.3 555.5h115.8v281.9H5.3z"/><path class="prefix__st9" d="M104 700.5v119.7H20.9l.4-246.7 82.7-.7v119.8"/><path class="prefix__st9" d="M105.9 692.6v-8.9h11.4v23.8h-11.4v-7H94.6v-7.9h9.4z"/><path class="prefix__st10" d="M105.9 692.6h7.5v7.9h-7.5"/></g></g><path class="prefix__st10" d="M121 837.4l-17-17.2M20.9 820.2L5.3 837.4M21.4 573.5l-16.1-18M103.9 572.8l17.1-17.2"/></g><path class="prefix__st12" d="M124.9 841.5L0 841.9V551.5h124.9"/><path class="prefix__st14" d="M0 551.5v290.4-290.4z"/><path fill="none" d="M124.9 551.9v290"/></g></svg>